<?xml version="1.0" encoding="utf-8"?>
<!-- Generator: Adobe Illustrator 21.1.0, SVG Export Plug-In . SVG Version: 6.00 Build 0)  -->
<svg version="1.1" id="Ebene_1" xmlns="http://www.w3.org/2000/svg" xmlns:xlink="http://www.w3.org/1999/xlink" x="0px" y="0px"
	 viewBox="0 0 290.1 50" style="enable-background:new 0 0 290.1 50;" xml:space="preserve">
<style type="text/css">
	.st0{fill:#E2001A;}
	.st1{fill:#FFFFFF;}
</style>
<g>
	<g>
		<g>
			<path class="st0" d="M50,48.6c0,0.8-0.6,1.4-1.4,1.4H1.4C0.6,50,0,49.4,0,48.6V1.4C0,0.6,0.6,0,1.4,0h47.2C49.4,0,50,0.6,50,1.4
				V48.6z"/>
		</g>
	</g>
	<g>
		<path class="st1" d="M79.7,12c2.8,0,5.1,1.4,6.5,2.9l-1.7,1.9c-1.3-1.3-2.8-2.2-4.7-2.2c-4.5,0-7.5,3.7-7.5,9.6
			c0,6,2.9,9.7,7.4,9.7c2.2,0,3.9-0.9,5.4-2.6l1.7,1.8c-1.8,2.2-4.2,3.4-7.2,3.4c-6,0-10.4-4.6-10.4-12.3C69.1,16.7,73.6,12,79.7,12
			z"/>
		<path class="st1" d="M103.9,36.2l-5.7-10h-4.3v10h-3V12.5h7.4c4.8,0,8.3,1.7,8.3,6.6c0,3.7-2.1,5.9-5.3,6.7l6,10.3H103.9z
			 M93.9,23.7h4c3.7,0,5.7-1.5,5.7-4.6c0-3.1-2-4.2-5.7-4.2h-4V23.7z"/>
		<path class="st1" d="M111.6,12.5h3v14c0,5.7,2.4,7.5,5.5,7.5c3.1,0,5.6-1.8,5.6-7.5v-14h2.9v13.9c0,7.6-3.7,10.2-8.5,10.2
			s-8.5-2.6-8.5-10.2V12.5z"/>
		<path class="st1" d="M134.9,12.5h5.9c7.3,0,11.2,4.2,11.2,11.7c0,7.6-3.9,12-11.1,12h-6.1V12.5z M140.6,33.7
			c5.6,0,8.3-3.5,8.3-9.5c0-6-2.7-9.3-8.3-9.3h-2.7v18.8H140.6z"/>
		<path class="st1" d="M164.3,12.5h13.7V15h-10.6v7.4h9V25h-9v8.6h11v2.6h-14V12.5z"/>
		<path class="st1" d="M186.3,27l-5.3-8.4h3.2l2.3,3.9c0.5,0.9,1.1,2,1.7,2.9h0.1c0.5-1,1-2,1.6-2.9l2.1-3.9h3.1l-5.3,8.7l5.7,8.9
			h-3.2l-2.6-4.1c-0.6-1-1.3-2.1-1.9-3.1h-0.1c-0.6,1-1.2,2.1-1.8,3.1l-2.4,4.1h-3.1L186.3,27z"/>
		<path class="st1" d="M208.7,25c0-2.2-0.8-4.4-3.6-4.4c-2.1,0-3.9,0.9-5.2,1.9l-1.2-2.1c1.6-1,4.1-2.3,6.9-2.3
			c4.3,0,6.1,2.9,6.1,7.2v10.8h-2.5l-0.3-2.1h-0.1c-1.7,1.4-3.7,2.5-5.8,2.5c-3,0-5.2-1.8-5.2-5C197.9,27.8,201.2,25.9,208.7,25z
			 M203.9,34.2c1.7,0,3.1-0.8,4.8-2.3V27c-5.9,0.7-7.9,2.2-7.9,4.4C200.8,33.4,202.1,34.2,203.9,34.2z"/>
		<path class="st1" d="M217.2,18.6h2.5l0.3,2.5h0.1c1.5-1.7,3.4-3,5.5-3c2.7,0,4.1,1.3,4.8,3.4c1.8-2,3.7-3.4,5.8-3.4
			c3.6,0,5.3,2.4,5.3,6.9v11.1h-3V25.4c0-3.3-1-4.7-3.3-4.7c-1.4,0-2.8,0.9-4.4,2.7v12.7h-3V25.4c0-3.3-1-4.7-3.3-4.7
			c-1.3,0-2.8,0.9-4.4,2.7v12.7h-3V18.6z"/>
		<path class="st1" d="M250.2,37.6v5.9h-3v-25h2.5l0.3,2h0.1c1.6-1.3,3.5-2.5,5.6-2.5c4.5,0,6.9,3.5,6.9,9c0,6-3.6,9.5-7.6,9.5
			c-1.6,0-3.3-0.8-4.9-2L250.2,37.6z M254.5,34.1c2.9,0,5-2.6,5-7c0-3.9-1.3-6.5-4.6-6.5c-1.5,0-3,0.8-4.7,2.4v9.2
			C251.8,33.6,253.3,34.1,254.5,34.1z"/>
		<path class="st1" d="M267.3,10.4h3v22.4c0,0.9,0.4,1.3,0.8,1.3c0.2,0,0.3,0,0.6-0.1l0.4,2.2c-0.4,0.2-0.9,0.3-1.7,0.3
			c-2.2,0-3.1-1.4-3.1-4V10.4z"/>
		<path class="st1" d="M283.1,18.2c4.5,0,7,3.2,7,8.2c0,0.6,0,1.2-0.1,1.6h-11.9c0.2,3.8,2.5,6.2,5.9,6.2c1.7,0,3.1-0.5,4.4-1.4l1,2
			c-1.5,1-3.4,1.8-5.8,1.8c-4.7,0-8.4-3.4-8.4-9.2S279,18.2,283.1,18.2z M287.5,26.1c0-3.6-1.6-5.6-4.3-5.6c-2.5,0-4.7,2-5.1,5.6
			H287.5z"/>
	</g>
	<path class="st1" d="M26.8,12.7c2.8,0,5.1,1.4,6.5,2.9l-1.7,1.9c-1.3-1.3-2.8-2.2-4.7-2.2c-4.5,0-7.5,3.7-7.5,9.6
		c0,6,2.9,9.7,7.4,9.7c2.2,0,3.9-0.9,5.4-2.6l1.7,1.8c-1.8,2.2-4.2,3.4-7.2,3.4c-6,0-10.4-4.6-10.4-12.3
		C16.2,17.4,20.7,12.7,26.8,12.7z"/>
</g>
</svg>
